<svg width="20" height="20" fill="none" xmlns="http://www.w3.org/2000/svg"><path fill-rule="evenodd" clip-rule="evenodd" d="M10 4.546c-1.888 0-4.458.162-6.09.28-.542.04-.962.47-.962.994v.592l6.532 3.43c.323.17.715.17 1.038 0l6.533-3.43v-.593c0-.524-.42-.953-.962-.992-1.632-.12-4.203-.28-6.09-.28Zm7.05 3.252-5.91 3.104a2.47 2.47 0 0 1-2.282 0l-5.91-3.104v6.384c0 .524.42.953.962.992 1.632.12 4.202.281 6.09.281 1.886 0 4.457-.162 6.089-.28.542-.04.962-.47.962-.993V7.798ZM3.812 3.618C5.445 3.5 8.058 3.334 10 3.334c1.941 0 4.555.165 6.188.284 1.22.09 2.146 1.054 2.146 2.201v8.363c0 1.147-.925 2.112-2.146 2.201-1.633.119-4.247.284-6.188.284-1.94 0-4.554-.165-6.188-.284-1.22-.089-2.145-1.054-2.145-2.201V5.819c0-1.147.925-2.112 2.145-2.2Z" fill="#fff"/></svg>