<svg width="36" height="36" fill="none" xmlns="http://www.w3.org/2000/svg"><g clip-path="url(#a)" fill="#5B5959"><path d="M35.649 18.415c0-1.224-.1-2.454-.31-3.658H18.36v6.932h9.723a8.332 8.332 0 0 1-3.598 5.47v4.497h5.8c3.406-3.135 5.364-7.765 5.364-13.241Z"/><path d="M18.36 36.001c4.855 0 8.949-1.594 11.932-4.345l-5.8-4.498c-1.615 1.098-3.698 1.72-6.125 1.72-4.696 0-8.678-3.168-10.107-7.428H2.275v4.637A18.003 18.003 0 0 0 18.36 36Z"/><path d="M8.254 21.45a10.781 10.781 0 0 1 0-6.891V9.922h-5.98a18.015 18.015 0 0 0 0 16.165l5.98-4.637Z"/><path d="M18.36 7.124a9.782 9.782 0 0 1 6.905 2.699l5.14-5.14A17.3 17.3 0 0 0 18.36.002a17.997 17.997 0 0 0-16.085 9.92l5.979 4.637c1.422-4.266 5.41-7.435 10.106-7.435Z"/></g><defs><clipPath id="a"><path fill="#fff" d="M0 0h36v36H0z"/></clipPath></defs></svg>