<svg width="36" height="36" fill="none" xmlns="http://www.w3.org/2000/svg"><g clip-path="url(#a)"><path d="M18 36c9.941 0 18-8.059 18-18S27.941 0 18 0 0 8.059 0 18s8.059 18 18 18Z" fill="#5B5959"/><path fill-rule="evenodd" clip-rule="evenodd" d="M8.148 17.81c5.247-2.286 8.746-3.793 10.497-4.522 4.999-2.079 6.038-2.44 6.715-2.452.149-.002.481.034.697.21.182.147.232.347.256.487.024.14.054.46.03.709-.27 2.846-1.443 9.753-2.039 12.94-.252 1.35-.75 1.802-1.23 1.846-1.045.096-1.84-.69-2.852-1.354-1.584-1.039-2.479-1.685-4.017-2.699-1.777-1.17-.625-1.815.388-2.867.265-.275 4.87-4.464 4.96-4.844.011-.047.021-.225-.084-.318-.105-.094-.26-.062-.373-.036-.158.036-2.69 1.709-7.592 5.018-.718.493-1.37.734-1.952.721-.643-.014-1.879-.363-2.798-.662-1.127-.366-2.023-.56-1.945-1.182.04-.325.487-.656 1.339-.995Z" fill="#fff"/></g><defs><clipPath id="a"><path fill="#fff" d="M0 0h36v36H0z"/></clipPath></defs></svg>