<svg width="36" height="36" fill="none" xmlns="http://www.w3.org/2000/svg"><path d="M11.321 32.626c13.585 0 21.016-11.255 21.016-21.015 0-.32 0-.638-.022-.955A15.025 15.025 0 0 0 36 6.833a14.72 14.72 0 0 1-4.242 1.162 7.41 7.41 0 0 0 3.247-4.085 14.798 14.798 0 0 1-4.69 1.792 7.393 7.393 0 0 0-12.587 6.737A20.97 20.97 0 0 1 2.506 4.722a7.391 7.391 0 0 0 2.286 9.86 7.322 7.322 0 0 1-3.352-.925v.094a7.388 7.388 0 0 0 5.926 7.24 7.372 7.372 0 0 1-3.335.127 7.396 7.396 0 0 0 6.9 5.129A14.817 14.817 0 0 1 0 29.308a20.913 20.913 0 0 0 11.321 3.312" fill="#5B5959"/></svg>