<svg width="36" height="36" fill="none" xmlns="http://www.w3.org/2000/svg"><g clip-path="url(#a)"><path d="M0 17.28C0 9.134 0 5.061 2.53 2.53 5.062 0 9.135 0 17.28 0h1.44c8.146 0 12.219 0 14.75 2.53C36 5.062 36 9.135 36 17.28v1.44c0 8.146 0 12.219-2.53 14.75C30.938 36 26.865 36 18.72 36h-1.44c-8.146 0-12.219 0-14.75-2.53C0 30.938 0 26.865 0 18.72v-1.44Z" fill="#5B5959"/><path d="M19.155 25.935c-8.205 0-12.885-5.625-13.08-14.985h4.11c.135 6.87 3.165 9.78 5.565 10.38V10.95h3.87v5.925c2.37-.255 4.86-2.955 5.7-5.925h3.87c-.645 3.66-3.345 6.36-5.265 7.47 1.92.9 4.995 3.255 6.165 7.515h-4.26c-.915-2.85-3.195-5.055-6.21-5.355v5.355h-.465Z" fill="#fff"/></g><defs><clipPath id="a"><path fill="#fff" d="M0 0h36v36H0z"/></clipPath></defs></svg>