<svg width="70" height="70" fill="none" xmlns="http://www.w3.org/2000/svg"><g clip-path="url(#a)"><path d="M29.996 2.21a6.769 6.769 0 0 1 10.008 0 6.77 6.77 0 0 0 7.057 1.892 6.769 6.769 0 0 1 8.667 5.003 6.77 6.77 0 0 0 5.166 5.167 6.77 6.77 0 0 1 5.004 8.667 6.769 6.769 0 0 0 1.891 7.057 6.77 6.77 0 0 1 0 10.008 6.769 6.769 0 0 0-1.89 7.057 6.77 6.77 0 0 1-5.005 8.667 6.77 6.77 0 0 0-5.166 5.166 6.769 6.769 0 0 1-8.667 5.004 6.769 6.769 0 0 0-7.057 1.891 6.769 6.769 0 0 1-10.008 0 6.769 6.769 0 0 0-7.057-1.89 6.769 6.769 0 0 1-8.667-5.005 6.77 6.77 0 0 0-5.167-5.166 6.77 6.77 0 0 1-5.003-8.667 6.769 6.769 0 0 0-1.891-7.057 6.769 6.769 0 0 1 0-10.008A6.77 6.77 0 0 0 4.1 22.94a6.77 6.77 0 0 1 5.004-8.667 6.77 6.77 0 0 0 5.167-5.167 6.769 6.769 0 0 1 8.667-5.003 6.77 6.77 0 0 0 7.057-1.891Z" fill="#5600E1"/><g clip-path="url(#b)"><path fill-rule="evenodd" clip-rule="evenodd" d="M44.804 23.13c-.184.107-3.256 3.124-6.827 6.706l-6.491 6.513-3.062-3.055c-1.683-1.68-3.237-3.11-3.453-3.175-.885-.272-1.407.03-3.215 1.855L20 33.747v1.679l5.279 5.314c5.6 5.637 5.772 5.773 6.839 5.328.255-.107 4.383-4.138 9.173-8.96L50 28.344V26.66l-1.773-1.784c-1.541-1.552-1.858-1.794-2.43-1.86-.361-.043-.808.01-.992.116Z" fill="#fff"/></g></g><defs><clipPath id="a"><path fill="#fff" d="M0 0h70v70H0z"/></clipPath><clipPath id="b"><path fill="#fff" transform="translate(20 23)" d="M0 0h30v24H0z"/></clipPath></defs></svg>